<svg width="48" height="35" viewBox="0 0 48 35" fill="none" xmlns="http://www.w3.org/2000/svg">
<rect width="48" height="35" rx="12" fill="#DCE1FF"/>
<path d="M17.5 23C15.9667 23 14.6667 22.4667 13.6 21.4C12.5333 20.3333 12 19.0333 12 17.5C12 15.9667 12.5333 14.6667 13.6 13.6C14.6667 12.5333 15.9667 12 17.5 12C18.1167 12 18.7083 12.1083 19.275 12.325C19.8417 12.5417 20.35 12.85 20.8 13.25L22.5 14.8L21 16.15L19.45 14.75C19.1833 14.5167 18.8833 14.3333 18.55 14.2C18.2167 14.0667 17.8667 14 17.5 14C16.5333 14 15.7083 14.3417 15.025 15.025C14.3417 15.7083 14 16.5333 14 17.5C14 18.4667 14.3417 19.2917 15.025 19.975C15.7083 20.6583 16.5333 21 17.5 21C17.8667 21 18.2167 20.9333 18.55 20.8C18.8833 20.6667 19.1833 20.4833 19.45 20.25L27.2 13.25C27.65 12.85 28.1583 12.5417 28.725 12.325C29.2917 12.1083 29.8833 12 30.5 12C32.0333 12 33.3333 12.5333 34.4 13.6C35.4667 14.6667 36 15.9667 36 17.5C36 19.0333 35.4667 20.3333 34.4 21.4C33.3333 22.4667 32.0333 23 30.5 23C29.8833 23 29.2917 22.8917 28.725 22.675C28.1583 22.4583 27.65 22.15 27.2 21.75L25.5 20.2L27 18.85L28.55 20.25C28.8167 20.4833 29.1167 20.6667 29.45 20.8C29.7833 20.9333 30.1333 21 30.5 21C31.4667 21 32.2917 20.6583 32.975 19.975C33.6583 19.2917 34 18.4667 34 17.5C34 16.5333 33.6583 15.7083 32.975 15.025C32.2917 14.3417 31.4667 14 30.5 14C30.1333 14 29.7833 14.0667 29.45 14.2C29.1167 14.3333 28.8167 14.5167 28.55 14.75L20.8 21.75C20.35 22.15 19.8417 22.4583 19.275 22.675C18.7083 22.8917 18.1167 23 17.5 23Z" fill="#0037B0"/>
</svg>
