<svg width="48" height="48" viewBox="0 0 48 48" fill="none" xmlns="http://www.w3.org/2000/svg">
<rect width="48" height="48" rx="12" fill="#FEF2F2"/>
<path d="M21 24.5H22V22.5H23C23.2833 22.5 23.5208 22.4042 23.7125 22.2125C23.9042 22.0208 24 21.7833 24 21.5V20.5C24 20.2167 23.9042 19.9792 23.7125 19.7875C23.5208 19.5958 23.2833 19.5 23 19.5H21V24.5ZM22 21.5V20.5H23V21.5H22ZM25 24.5H27C27.2833 24.5 27.5208 24.4042 27.7125 24.2125C27.9042 24.0208 28 23.7833 28 23.5V20.5C28 20.2167 27.9042 19.9792 27.7125 19.7875C27.5208 19.5958 27.2833 19.5 27 19.5H25V24.5ZM26 23.5V20.5H27V23.5H26ZM29 24.5H30V22.5H31V21.5H30V20.5H31V19.5H29V24.5ZM20 30C19.45 30 18.9792 29.8042 18.5875 29.4125C18.1958 29.0208 18 28.55 18 28V16C18 15.45 18.1958 14.9792 18.5875 14.5875C18.9792 14.1958 19.45 14 20 14H32C32.55 14 33.0208 14.1958 33.4125 14.5875C33.8042 14.9792 34 15.45 34 16V28C34 28.55 33.8042 29.0208 33.4125 29.4125C33.0208 29.8042 32.55 30 32 30H20ZM20 28H32V16H20V28ZM16 34C15.45 34 14.9792 33.8042 14.5875 33.4125C14.1958 33.0208 14 32.55 14 32V18H16V32H30V34H16ZM20 16V28V16Z" fill="#EF4444"/>
</svg>
