<svg width="48" height="48" viewBox="0 0 48 48" fill="none" xmlns="http://www.w3.org/2000/svg">
<rect width="48" height="48" rx="12" fill="#EFF6FF"/>
<path d="M16 16L18 20H21L19 16H21L23 20H26L24 16H26L28 20H31L29 16H32C32.55 16 33.0208 16.1958 33.4125 16.5875C33.8042 16.9792 34 17.45 34 18V30C34 30.55 33.8042 31.0208 33.4125 31.4125C33.0208 31.8042 32.55 32 32 32H16C15.45 32 14.9792 31.8042 14.5875 31.4125C14.1958 31.0208 14 30.55 14 30V18C14 17.45 14.1958 16.9792 14.5875 16.5875C14.9792 16.1958 15.45 16 16 16ZM16 22V30H32V22H16ZM16 22V30V22Z" fill="#0037B0"/>
</svg>
