<svg width="54" height="67" viewBox="0 0 54 67" fill="none" xmlns="http://www.w3.org/2000/svg">
<path d="M23.3333 56.6667H30V42.75L35.3333 48.0833L40 43.3333L26.6667 30L13.3333 43.3333L18.0833 48L23.3333 42.75V56.6667ZM6.66667 66.6667C4.83333 66.6667 3.26389 66.0139 1.95833 64.7083C0.652778 63.4028 0 61.8333 0 60V6.66667C0 4.83333 0.652778 3.26389 1.95833 1.95833C3.26389 0.652778 4.83333 0 6.66667 0H33.3333L53.3333 20V60C53.3333 61.8333 52.6806 63.4028 51.375 64.7083C50.0694 66.0139 48.5 66.6667 46.6667 66.6667H6.66667ZM30 23.3333V6.66667H6.66667V60H46.6667V23.3333H30ZM6.66667 6.66667V23.3333V6.66667V23.3333V60V6.66667Z" fill="#0037B0" fill-opacity="0.1"/>
</svg>
