<svg width="60" height="60" viewBox="0 0 60 60" fill="none" xmlns="http://www.w3.org/2000/svg">
<path d="M20 40V20H40V40H20ZM26.6667 33.3333H33.3333V26.6667H26.6667V33.3333ZM20 60V53.3333H13.3333C11.5 53.3333 9.93056 52.6806 8.625 51.375C7.31944 50.0694 6.66667 48.5 6.66667 46.6667V40H0V33.3333H6.66667V26.6667H0V20H6.66667V13.3333C6.66667 11.5 7.31944 9.93056 8.625 8.625C9.93056 7.31944 11.5 6.66667 13.3333 6.66667H20V0H26.6667V6.66667H33.3333V0H40V6.66667H46.6667C48.5 6.66667 50.0694 7.31944 51.375 8.625C52.6806 9.93056 53.3333 11.5 53.3333 13.3333V20H60V26.6667H53.3333V33.3333H60V40H53.3333V46.6667C53.3333 48.5 52.6806 50.0694 51.375 51.375C50.0694 52.6806 48.5 53.3333 46.6667 53.3333H40V60H33.3333V53.3333H26.6667V60H20ZM46.6667 46.6667V13.3333H13.3333V46.6667H46.6667Z" fill="#0037B0" fill-opacity="0.1"/>
</svg>
