<svg width="71" height="67" viewBox="0 0 71 67" fill="none" xmlns="http://www.w3.org/2000/svg">
<path d="M55.5833 23.3333L51.9167 15.3333L43.9167 11.6667L51.9167 8L55.5833 0L59.25 8L67.25 11.6667L59.25 15.3333L55.5833 23.3333ZM62.25 46.6667L59.5833 41L53.9167 38.3333L59.5833 35.6667L62.25 30L64.9167 35.6667L70.5833 38.3333L64.9167 41L62.25 46.6667ZM18.9167 66.6667L17.9167 58.8333C17.5278 58.6667 17.1111 58.4444 16.6667 58.1667C16.2222 57.8889 15.8611 57.6111 15.5833 57.3333L8.25 60.5L0 46L6.25 41.3333C6.25 40.8889 6.25 40.4444 6.25 40C6.25 39.5556 6.25 39.1111 6.25 38.6667L0 34L8.25 19.5L15.5833 22.6667C15.8611 22.3889 16.2222 22.1111 16.6667 21.8333C17.1111 21.5556 17.5278 21.3333 17.9167 21.1667L18.9167 13.3333H35.5833L36.5833 21.1667C36.9722 21.3333 37.3889 21.5556 37.8333 21.8333C38.2778 22.1111 38.6389 22.3889 38.9167 22.6667L46.25 19.5L54.5 34L48.25 38.6667C48.25 39.1111 48.25 39.5556 48.25 40C48.25 40.4444 48.25 40.8889 48.25 41.3333L54.5 46L46.25 60.5L38.9167 57.3333C38.6389 57.6111 38.2778 57.8889 37.8333 58.1667C37.3889 58.4444 36.9722 58.6667 36.5833 58.8333L35.5833 66.6667H18.9167ZM27.25 50C30.0278 50 32.3889 49.0278 34.3333 47.0833C36.2778 45.1389 37.25 42.7778 37.25 40C37.25 37.2222 36.2778 34.8611 34.3333 32.9167C32.3889 30.9722 30.0278 30 27.25 30C24.4722 30 22.1111 30.9722 20.1667 32.9167C18.2222 34.8611 17.25 37.2222 17.25 40C17.25 42.7778 18.2222 45.1389 20.1667 47.0833C22.1111 49.0278 24.4722 50 27.25 50ZM24.75 60H29.75L30.4167 54C32.0278 53.5556 33.4028 52.9861 34.5417 52.2917C35.6806 51.5972 36.8056 50.6667 37.9167 49.5L43.4167 52L45.75 47.8333L40.9167 44.1667C41.3611 42.8889 41.5833 41.5 41.5833 40C41.5833 38.5 41.3611 37.1111 40.9167 35.8333L45.75 32.1667L43.4167 28L37.9167 30.5C36.8056 29.3333 35.6806 28.4028 34.5417 27.7083C33.4028 27.0139 32.0278 26.4444 30.4167 26L29.75 20H24.75L24.0833 26C22.4722 26.4444 21.0972 27.0139 19.9583 27.7083C18.8194 28.4028 17.6944 29.3333 16.5833 30.5L11.0833 28L8.75 32.1667L13.5833 35.8333C13.1389 37.1111 12.9028 38.5 12.875 40C12.8472 41.5 13.0833 42.8889 13.5833 44.1667L8.75 47.8333L11.0833 52L16.5833 49.5C17.6944 50.6667 18.8194 51.5972 19.9583 52.2917C21.0972 52.9861 22.4722 53.5556 24.0833 54L24.75 60Z" fill="#712EDD" fill-opacity="0.1"/>
</svg>
